<svg width="361" height="203" xmlns="http://www.w3.org/2000/svg" xmlns:xlink="http://www.w3.org/1999/xlink" overflow="hidden"><defs><clipPath id="clip0"><rect x="460" y="141" width="361" height="203"/></clipPath></defs><g clip-path="url(#clip0)" transform="translate(-460 -141)"><path d="M0 0 360.889 0 360.889 203 0 203Z" fill="#737373" transform="matrix(1.00031 0 0 1 460 141)"/><path d="M105.241 73.6657C105.241 102.676 81.7229 126.194 52.7121 126.194 23.7013 126.194 0.183445 102.676 0.183445 73.6657 0.183445 44.6549 23.7013 21.137 52.7121 21.137 81.7229 21.137 105.241 44.6549 105.241 73.6657Z" fill="#505050" transform="matrix(1.00031 0 0 1 460 141)"/><path d="M43.4288 25.1412C43.4288 54.1519 66.9468 77.6699 95.9575 77.6699 124.968 77.6699 148.486 54.1519 148.486 25.1412 148.486 16.0332 146.167 7.46739 142.089 5.34223e-15L49.8264 5.34223e-15C45.7481 7.46739 43.4288 16.0332 43.4288 25.1412Z" fill="#505050" transform="matrix(1.00031 0 0 1 460 141)"/><path d="M247.543 122.654C247.543 157.56 219.246 185.856 184.34 185.856 149.435 185.856 121.138 157.56 121.138 122.654 121.138 87.7481 149.435 59.4514 184.34 59.4514 219.246 59.4514 247.543 87.7481 247.543 122.654Z" fill="#505050" transform="matrix(1.00031 0 0 1 460 141)"/><path d="M172.546 154.42C172.546 178.166 153.295 197.416 129.549 197.416 105.803 197.416 86.5526 178.166 86.5526 154.42 86.5526 130.673 105.803 111.423 129.549 111.423 153.295 111.423 172.546 130.673 172.546 154.42Z" fill="#505050" transform="matrix(1.00031 0 0 1 460 141)"/><path d="M360.889 200.679 360.889 77.8046C355.385 76.2573 349.581 75.428 343.583 75.428 308.34 75.428 279.77 103.998 279.77 139.241 279.77 173.632 306.975 201.664 341.036 203L346.128 203C351.224 202.801 356.167 202.006 360.889 200.679Z" transform="matrix(1.00031 0 0 1 460 141)"/><path d="M212.329 142.719C187.969 142.719 168.223 162.466 168.223 186.825 168.223 192.536 169.308 197.993 171.283 203L253.374 203C255.35 197.993 256.434 192.536 256.434 186.825 256.434 162.466 236.687 142.719 212.329 142.719Z" fill="#2F2F2F" transform="matrix(1.00031 0 0 1 460 141)"/><path d="M40.8705 111.705C24.3589 111.705 9.62953 119.326 0 131.239L0 197.23C1.66291 199.286 3.47638 201.216 5.4263 203L76.3147 203C86.8133 193.395 93.3992 179.584 93.3992 164.234 93.3992 135.223 69.8814 111.705 40.8705 111.705Z" fill="#2F2F2F" transform="matrix(1.00031 0 0 1 460 141)"/><path d="M18.9893 57.5319C18.8224 57.5477 18.6651 57.5629 18.6651 57.5629L11.5041 56.0977 0 37.5888 0 38.8085 11.1026 56.6712C12.2432 60.457 15.5167 70.0523 21.8576 79.6553 30.0066 91.9966 40.1352 99.6753 40.1352 99.6753L11.8402 56.8235 18.3986 58.1653C21.2071 59.7232 30.8197 64.7094 42.9501 67.1913 57.4389 70.1557 70.0305 68.4234 70.0305 68.4234 70.0305 68.4234 59.1311 61.8847 44.6423 58.9204 33.0514 56.549 22.6764 57.1832 18.9893 57.5319Z" fill="#2F2F2F" transform="matrix(1.00031 0 0 1 460 141)"/><path d="M57.321 0 41.5939 0C38.4146 1.67964 35.1137 3.59874 31.812 5.77892 16.1193 16.1408 5.83531 28.7961 4.14571 30.9445L0 30.2098 0 30.8637 3.66941 31.5141C5.98079 32.8471 20.2658 40.7917 38.738 44.5711 58.9399 48.7044 76.4966 46.2891 76.4966 46.2891 76.4966 46.2891 61.2994 37.1723 41.0975 33.0388 24.2728 29.5965 9.28499 30.6962 4.74343 31.1601L4.71204 31.0449C8.31078 30.0436 23.2976 25.5066 38.298 15.6019 46.1103 10.4436 52.5823 4.71637 57.321 0Z" fill="#2F2F2F" transform="matrix(1.00031 0 0 1 460 141)"/><path d="M81.4224 159.237C81.4224 159.237 70.1433 165.096 60.0284 175.885 49.9136 186.674 44.7935 198.308 44.7935 198.308 44.7935 198.308 56.0725 192.448 66.1874 181.659 76.3022 170.87 81.4224 159.237 81.4224 159.237Z" fill="#505050" transform="matrix(1.00031 0 0 1 460 141)"/><path d="M36.125 165.347C24.3797 177.875 17.4657 191.218 15.4816 195.329L15.3669 195.297C16.3992 191.705 20.3848 176.563 19.8053 158.598 19.1405 137.988 12.7191 121.471 12.7191 121.471 12.7191 121.471 7.37567 138.368 8.0403 158.977 8.64648 177.77 14.0378 193.156 14.9842 195.726L8.49461 203 9.35774 203 15.2162 196.433C17.5499 195.169 31.8093 187.161 44.7124 173.398 58.8157 158.354 65.9547 142.134 65.9547 142.134 65.9547 142.134 50.2282 150.304 36.125 165.347Z" fill="#505050" transform="matrix(1.00031 0 0 1 460 141)"/><path d="M73.677 13.6824C73.677 16.0181 71.7835 17.9116 69.4478 17.9116 67.1121 17.9116 65.2186 16.0181 65.2186 13.6824 65.2186 11.3467 67.1121 9.45322 69.4478 9.45322 71.7835 9.45322 73.677 11.3467 73.677 13.6824Z" fill="#737373" transform="matrix(1.00031 0 0 1 460 141)"/><path d="M246.98 181.345C246.98 183.681 245.086 185.575 242.75 185.575 240.415 185.575 238.521 183.681 238.521 181.345 238.521 179.01 240.415 177.116 242.75 177.116 245.086 177.116 246.98 179.01 246.98 181.345Z" fill="#505050" transform="matrix(1.00031 0 0 1 460 141)"/><path d="M131.758 181.345C131.758 183.681 129.864 185.575 127.528 185.575 125.193 185.575 123.299 183.681 123.299 181.345 123.299 179.01 125.193 177.116 127.528 177.116 129.864 177.116 131.758 179.01 131.758 181.345Z" fill="#CFCFCF" transform="matrix(1.00031 0 0 1 460 141)"/><path d="M148.674 62.9287C148.674 65.2644 146.781 67.1579 144.445 67.1579 142.109 67.1579 140.216 65.2644 140.216 62.9287 140.216 60.593 142.109 58.6995 144.445 58.6995 146.781 58.6995 148.674 60.593 148.674 62.9287Z" fill="#D2D2D2" transform="matrix(1.00031 0 0 1 460 141)"/><path d="M209.01 27.6856C209.01 39.4161 199.501 48.9254 187.77 48.9254 176.04 48.9254 166.531 39.4161 166.531 27.6856 166.531 15.9552 176.04 6.44581 187.77 6.44581 199.501 6.44581 209.01 15.9552 209.01 27.6856Z" fill="#505050" transform="matrix(1.00031 0 0 1 460 141)"/><path d="M58.6399 21.7648C58.6399 25.7614 55.4 29.0014 51.4034 29.0014 47.4067 29.0014 44.1668 25.7614 44.1668 21.7648 44.1668 17.7681 47.4067 14.5282 51.4034 14.5282 55.4 14.5282 58.6399 17.7681 58.6399 21.7648Z" fill="#737373" transform="matrix(1.00031 0 0 1 460 141)"/><path d="M170.666 126.46C170.666 130.457 167.426 133.697 163.429 133.697 159.433 133.697 156.193 130.457 156.193 126.46 156.193 122.464 159.433 119.224 163.429 119.224 167.426 119.224 170.666 122.464 170.666 126.46Z" fill="#737373" transform="matrix(1.00031 0 0 1 460 141)"/><path d="M237.898 23.8967C237.898 28.1364 234.461 31.5735 230.221 31.5735 225.981 31.5735 222.544 28.1364 222.544 23.8967 222.544 19.6569 225.981 16.2199 230.221 16.2199 234.461 16.2199 237.898 19.6569 237.898 23.8967Z" fill="#D2D2D2" transform="matrix(1.00031 0 0 1 460 141)"/><path d="M153.045 126.836C140.33 126.836 128.376 121.885 119.385 112.894 110.394 103.903 105.443 91.9492 105.443 79.2343 105.443 66.5193 110.394 54.5656 119.385 45.5748 128.376 36.584 140.33 31.6327 153.045 31.6327 165.759 31.6327 177.713 36.5842 186.704 45.5748 195.694 54.5656 200.647 66.5193 200.647 79.2343 200.647 91.9492 195.694 103.903 186.704 112.894 177.713 121.885 165.759 126.836 153.045 126.836ZM153.045 32.0086C127.004 32.0086 105.819 53.1939 105.819 79.2343 105.819 105.275 127.004 126.46 153.045 126.46 179.085 126.46 200.271 105.274 200.271 79.2343 200.271 53.1941 179.085 32.0086 153.045 32.0086Z" fill="#737373" transform="matrix(1.00031 0 0 1 460 141)"/><path d="M153.045 153.506C143.018 153.506 133.291 151.543 124.134 147.67 115.29 143.929 107.347 138.573 100.526 131.752 93.7054 124.932 88.3501 116.989 84.6093 108.144 80.7365 98.9875 78.7726 89.2608 78.7726 79.2343 78.7726 69.2078 80.7365 59.4811 84.6093 50.3243 88.3501 41.48 93.7054 33.5371 100.526 26.7161 107.347 19.8951 115.29 14.5399 124.134 10.7992 133.291 6.92625 143.018 4.96241 153.045 4.96241 163.071 4.96241 172.798 6.92643 181.954 10.7994 190.799 14.5403 198.741 19.8955 205.562 26.7163 212.383 33.5373 217.738 41.4802 221.479 50.3245 225.353 59.4811 227.317 69.2078 227.317 79.2345 227.317 89.2612 225.353 98.9877 221.479 108.144 217.738 116.989 212.383 124.932 205.562 131.753 198.741 138.574 190.799 143.929 181.954 147.67 172.798 151.543 163.071 153.506 153.045 153.506ZM153.045 5.33852C112.298 5.33852 79.1486 38.488 79.1486 79.2345 79.1486 119.981 112.298 153.13 153.045 153.13 193.792 153.13 226.941 119.981 226.941 79.2345 226.941 38.488 193.792 5.33852 153.045 5.33852Z" fill="#737373" transform="matrix(1.00031 0 0 1 460 141)"/><path d="M153.045 114.983C133.333 114.983 117.296 98.946 117.296 79.2343 117.296 59.5226 133.333 43.486 153.045 43.486 172.756 43.486 188.792 59.5226 188.792 79.2343 188.792 98.9462 172.756 114.983 153.045 114.983ZM153.045 43.8621C133.54 43.8621 117.672 59.7299 117.672 79.2345 117.672 98.739 133.54 114.607 153.045 114.607 172.549 114.607 188.416 98.7388 188.416 79.2345 188.416 59.7301 172.549 43.8621 153.045 43.8621Z" fill="#737373" transform="matrix(1.00031 0 0 1 460 141)"/><path d="M83.1418 105.799C71.7983 105.799 61.1338 101.382 53.1129 93.361 45.0918 85.3399 40.6744 74.6754 40.6744 63.3319 40.6744 51.9883 45.0918 41.3238 53.1129 33.3027 61.1338 25.2818 71.7985 20.8643 83.1418 20.8643 94.4852 20.8643 105.15 25.2816 113.171 33.3027 121.192 41.3238 125.609 51.9883 125.609 63.3319 125.609 74.6754 121.192 85.3399 113.171 93.361 105.15 101.382 94.4854 105.799 83.1418 105.799ZM83.1418 21.0829C59.8457 21.0829 40.8928 40.0357 40.8928 63.3319 40.8928 86.6282 59.8457 105.581 83.1418 105.581 106.438 105.581 125.391 86.6282 125.391 63.3319 125.391 40.0357 106.438 21.0829 83.1418 21.0829Z" fill="#2F2F2F" transform="matrix(1.00031 0 0 1 460 141)"/><path d="M83.1418 95.2098C65.5643 95.2098 51.2639 80.9094 51.2639 63.3319 51.2639 45.7543 65.5643 31.4539 83.1418 31.4539 100.719 31.4539 115.02 45.7543 115.02 63.3319 115.02 80.9094 100.719 95.2098 83.1418 95.2098ZM83.1418 31.6723C65.6848 31.6723 51.4823 45.8748 51.4823 63.3319 51.4823 80.7889 65.6848 94.9914 83.1418 94.9914 100.599 94.9914 114.801 80.7889 114.801 63.3319 114.801 45.8748 100.599 31.6723 83.1418 31.6723Z" fill="#2F2F2F" transform="matrix(1.00031 0 0 1 460 141)"/><path d="M78.3941 196.136C61.2831 196.136 47.3622 182.215 47.3622 165.104 47.3622 147.993 61.2831 134.072 78.3941 134.072 95.5051 134.072 109.426 147.993 109.426 165.104 109.426 182.215 95.5051 196.136 78.3941 196.136ZM78.3941 134.261C61.3866 134.261 47.5501 148.097 47.5501 165.105 47.5501 182.112 61.3866 195.948 78.3941 195.948 95.4015 195.948 109.238 182.112 109.238 165.105 109.238 148.097 95.4015 134.261 78.3941 134.261Z" fill="#CFCFCF" transform="matrix(1.00031 0 0 1 460 141)"/><path d="M78.3941 188.403C65.5478 188.403 55.0966 177.951 55.0966 165.105 55.0966 152.258 65.5478 141.807 78.3941 141.807 91.2404 141.807 101.692 152.258 101.692 165.105 101.692 177.951 91.2404 188.403 78.3941 188.403ZM78.3941 141.995C65.6515 141.995 55.2846 152.362 55.2846 165.104 55.2846 177.847 65.6515 188.213 78.3941 188.213 91.1367 188.213 101.504 177.847 101.504 165.104 101.504 152.362 91.1367 141.995 78.3941 141.995Z" fill="#CFCFCF" transform="matrix(1.00031 0 0 1 460 141)"/><path d="M242.468 46.9449C242.468 75.9556 265.986 99.4736 294.997 99.4736 324.007 99.4736 347.525 75.9556 347.525 46.9449 347.525 26.4165 335.747 8.64122 318.582 5.34223e-15L271.409 5.34223e-15C254.244 8.64122 242.468 26.4165 242.468 46.9449Z" fill="#2F2F2F" transform="matrix(1.00031 0 0 1 460 141)"/><path d="M261.71 172.983C245.688 172.983 230.625 166.743 219.294 155.414 207.964 144.084 201.726 129.02 201.726 112.997 201.726 96.9746 207.964 81.9109 219.294 70.581 230.625 59.2512 245.688 53.0116 261.71 53.0116 277.734 53.0116 292.797 59.2512 304.128 70.581 315.456 81.9109 321.697 96.9746 321.697 112.997 321.697 129.02 315.456 144.084 304.128 155.414 292.797 166.743 277.734 172.983 261.71 172.983ZM261.71 53.4854C228.896 53.4854 202.199 80.1824 202.199 112.997 202.199 145.812 228.896 172.509 261.71 172.509 294.525 172.509 321.223 145.812 321.223 112.997 321.223 80.1824 294.525 53.4854 261.71 53.4854Z" fill="#737373" transform="matrix(1.00031 0 0 1 460 141)"/><path d="M261.71 158.046C249.677 158.046 238.365 153.36 229.856 144.851 221.347 136.343 216.663 125.03 216.663 112.997 216.663 100.964 221.349 89.6518 229.856 81.1432 238.365 72.6347 249.677 67.9488 261.71 67.9488 273.744 67.9488 285.055 72.6347 293.564 81.1432 302.073 89.6518 306.759 100.964 306.759 112.997 306.759 125.03 302.073 136.343 293.564 144.851 285.055 153.36 273.744 158.046 261.71 158.046ZM261.71 68.4225C237.132 68.4225 217.137 88.4185 217.137 112.997 217.137 137.576 237.132 157.572 261.71 157.572 286.288 157.572 306.286 137.576 306.286 112.997 306.286 88.4187 286.288 68.4225 261.71 68.4225Z" fill="#737373" transform="matrix(1.00031 0 0 1 460 141)"/><path d="M261.71 141.241C246.137 141.241 233.467 128.571 233.467 112.997 233.467 97.4235 246.137 84.7531 261.71 84.7531 277.285 84.7531 289.955 97.4235 289.955 112.997 289.954 128.571 277.285 141.241 261.71 141.241ZM261.71 85.2269C246.399 85.2269 233.941 97.6847 233.941 112.997 233.941 128.31 246.399 140.768 261.71 140.768 277.024 140.768 289.482 128.31 289.482 112.997 289.482 97.6847 277.024 85.2269 261.71 85.2269Z" fill="#737373" transform="matrix(1.00031 0 0 1 460 141)"/><path d="M31.2586 129.27 31.7024 129.456 31.7024 129.456C14.5389 136.17 14.2829 160.49 31.371 167.417 36.6095 169.54 42.3871 170.611 48.4418 170.366 69.5034 169.514 86.6509 152.469 87.6163 131.415 88.6935 107.923 69.9587 88.5294 46.702 88.5217 41.2977 88.5198 36.1383 89.5651 31.4158 91.4656 14.5068 98.2702 14.4427 122.216 31.2586 129.27Z" fill="#737373" transform="matrix(1.00031 0 0 1 460 141)"/><path d="M85.7218 117.012 64.1632 129.19 56.6235 129.188 76.4131 101.3C76.2838 101.164 76.1528 101.029 76.0218 100.894L64.4239 117.238 59.5173 90.5741C59.3187 90.5087 59.1194 90.4446 58.9192 90.382L63.9771 117.867 55.9438 129.187 31.0464 129.179C31.1479 129.237 31.5417 129.456 31.5417 129.456 31.5417 129.456 31.2434 129.614 31.0274 129.732L37.0682 129.734 39.3356 146.517 25.1152 163.489C25.2506 163.614 25.3897 163.735 25.5291 163.857L39.4358 147.259 42.5328 170.183C42.7212 170.202 42.9097 170.221 43.0986 170.238L37.6268 129.734 40.2592 129.735 53.4161 142.89 53.4187 169.855C53.6037 169.824 53.7879 169.791 53.9721 169.758L53.9694 143.444 72.0857 161.558C72.2312 161.442 72.374 161.324 72.5178 161.207L41.0421 129.736 55.2365 129.74 74.5232 159.463C74.6606 159.336 74.7985 159.209 74.9341 159.08L55.8964 129.741 87.656 129.751C87.6571 129.567 87.6603 129.382 87.659 129.198L65.2801 129.191 85.8901 117.55C85.8355 117.37 85.7792 117.191 85.7218 117.012Z" fill="#505050" transform="matrix(1.00031 0 0 1 460 141)"/><path d="M62.592 157.848C62.592 159.147 61.539 160.2 60.2401 160.2 58.9411 160.2 57.8881 159.147 57.8881 157.848 57.8881 156.549 58.9411 155.496 60.2401 155.496 61.539 155.496 62.592 156.549 62.592 157.848Z" fill="#E6E6E6" transform="matrix(1.00031 0 0 1 460 141)"/><path d="M50.8372 164.431C50.8372 165.365 50.0798 166.123 49.1455 166.123 48.2113 166.123 47.4539 165.365 47.4539 164.431 47.4539 163.497 48.2113 162.739 49.1455 162.739 50.0798 162.739 50.8372 163.497 50.8372 164.431Z" fill="#E6E6E6" transform="matrix(1.00031 0 0 1 460 141)"/><path d="M48.866 156.72C48.866 158.019 47.813 159.072 46.5141 159.072 45.2151 159.072 44.1621 158.019 44.1621 156.72 44.1621 155.421 45.2151 154.368 46.5141 154.368 47.813 154.368 48.866 155.421 48.866 156.72Z" fill="#CFCFCF" transform="matrix(1.00031 0 0 1 460 141)"/><path d="M360.889 20.7318C354.002 15.4772 345.403 12.3531 336.074 12.3499 330.67 12.348 325.51 13.3933 320.789 15.2938 303.88 22.0984 303.816 46.0445 320.631 53.098L321.075 53.2841 321.075 53.2841C303.912 59.9978 303.656 84.3185 320.744 91.2449 325.982 93.3683 331.76 94.439 337.815 94.1941 346.446 93.8452 354.417 90.7758 360.889 85.8271L360.889 20.7318Z" fill="#737373" transform="matrix(1.00031 0 0 1 460 141)"/><path d="M360.889 53.021 354.656 53.0189 360.889 49.4985 360.889 48.8647 353.536 53.0183 345.997 53.0157 360.889 32.0291 360.889 31.072 353.797 41.066 348.889 14.4025C348.692 14.3369 348.493 14.2728 348.292 14.2104L353.35 41.696 345.316 53.0159 320.426 53.0074C320.511 53.0616 320.875 53.2653 320.902 53.2804 320.904 53.2811 320.904 53.2813 320.902 53.2821 320.879 53.2946 320.614 53.4422 320.405 53.5608L326.441 53.5629 328.708 70.3459 314.488 87.318C314.624 87.4424 314.763 87.5642 314.902 87.6855L328.809 71.0876 331.905 94.0117C332.095 94.0309 332.283 94.0493 332.471 94.0661L326.999 53.5631 329.633 53.564 342.788 66.7191 342.792 93.6836C342.976 93.6529 343.16 93.62 343.344 93.5869L343.343 67.2723 360.889 84.8168 360.889 84.0341 330.414 53.5642 344.609 53.5689 360.889 78.6574 360.889 77.6405 345.269 53.5691 360.889 53.5743 360.889 53.021Z" fill="#505050" transform="matrix(1.00031 0 0 1 460 141)"/><path d="M328.372 83.6069C328.372 84.9058 327.319 85.9588 326.02 85.9588 324.721 85.9588 323.668 84.9058 323.668 83.6069 323.668 82.3079 324.721 81.2549 326.02 81.2549 327.319 81.2549 328.372 82.3079 328.372 83.6069Z" fill="#CFCFCF" transform="matrix(1.00031 0 0 1 460 141)"/><path d="M340.026 80.5995C340.026 81.8984 338.973 82.9514 337.674 82.9514 336.375 82.9514 335.322 81.8984 335.322 80.5995 335.322 79.3005 336.375 78.2475 337.674 78.2475 338.973 78.2475 340.026 79.3005 340.026 80.5995Z" fill="#CFCFCF" transform="matrix(1.00031 0 0 1 460 141)"/><path d="M175.159 26.5672 174.857 26.6909 174.857 26.6909C179.876 15.2214 168.317 3.41604 156.782 8.29725 153.245 9.79362 149.956 12.0546 147.165 15.0806 137.457 25.6068 137.408 42.0312 147.057 52.608 157.824 64.4098 176.139 64.7264 187.314 53.5587 189.912 50.9635 191.888 47.9832 193.243 44.8019 198.096 33.4112 186.625 21.8779 175.159 26.5672Z" fill="#2F2F2F" transform="matrix(1.00031 0 0 1 460 141)"/><path d="M173.907 38.5318 190.401 49.8985C190.472 49.7959 190.542 49.6925 190.613 49.5891L173.818 38.0131 172.364 29.4482 175.307 26.5071C175.252 26.5257 174.927 26.6203 174.927 26.6203 174.927 26.6203 175.027 26.2992 175.045 26.2368L172.145 29.1346 162.994 22.1621 161.673 7.17868C161.548 7.18394 161.423 7.19221 161.297 7.20086L162.59 21.8539 150.09 12.33C149.991 12.4112 149.891 12.4928 149.793 12.5757L171.877 29.4029 170.612 30.6669 157.975 30.6678 145.019 17.7166C144.945 17.8202 144.872 17.9245 144.8 18.029L157.441 30.668 140.038 30.6692C140.023 30.7943 140.011 30.9197 139.999 31.0451L170.235 31.043 163.415 37.8591 139.873 32.8462C139.868 32.9734 139.863 33.1005 139.86 33.2277L163.098 38.176 147.837 53.4266C147.925 53.5159 148.012 53.6061 148.101 53.6939L167.526 34.2818 160.184 60.6914C160.305 60.7248 160.426 60.756 160.547 60.7878L168.067 33.742 172.038 29.7741 177.176 60.0262C177.296 59.9826 177.415 59.9361 177.534 59.8908L173.907 38.5318Z" fill="#505050" transform="matrix(1.00031 0 0 1 460 141)"/><path d="M189.749 154.815 189.446 154.938 189.446 154.938C194.466 143.469 182.906 131.663 171.371 136.545 167.835 138.041 164.545 140.302 161.754 143.328 152.046 153.854 151.997 170.278 161.647 180.855 172.414 192.656 190.73 192.974 201.904 181.806 204.502 179.211 206.477 176.231 207.833 173.049 212.686 161.659 201.214 150.125 189.749 154.815Z" fill="#737373" transform="matrix(1.00031 0 0 1 460 141)"/><path d="M188.497 166.779 204.989 178.146C205.062 178.043 205.132 177.94 205.203 177.836L188.408 166.262 186.953 157.695 189.891 154.756C189.839 154.773 189.51 154.874 189.51 154.874 189.51 154.874 189.621 154.531 189.638 154.48L186.735 157.382 177.584 150.409 176.262 135.426C176.137 135.431 176.012 135.44 175.887 135.448L177.18 150.101 164.68 140.577C164.581 140.659 164.481 140.74 164.382 140.823L186.466 157.65 185.201 158.914 172.561 158.915 159.609 145.964C159.535 146.068 159.462 146.172 159.39 146.276L172.031 158.915 154.628 158.916C154.613 159.041 154.601 159.167 154.589 159.292L184.825 159.29 178.005 166.106 154.463 161.093C154.458 161.22 154.453 161.348 154.45 161.475L177.688 166.423 162.427 181.674C162.515 181.763 162.602 181.853 162.691 181.941L182.117 162.529 174.774 188.938C174.895 188.972 175.016 189.002 175.137 189.034L182.657 161.989 186.627 158.021 191.765 188.273C191.886 188.23 192.004 188.183 192.124 188.138L188.497 166.779Z" fill="#505050" transform="matrix(1.00031 0 0 1 460 141)"/><path d="M287.076 146.869 287.245 147.279 287.245 147.279C271.691 140.472 255.682 156.148 262.3 171.791 264.33 176.587 267.396 181.048 271.499 184.832 285.773 197.998 308.047 198.064 322.39 184.979 338.393 170.378 338.824 145.54 323.68 130.385 320.161 126.864 316.118 124.184 311.804 122.345 296.357 115.763 280.717 131.32 287.076 146.869Z" fill="#2F2F2F" transform="matrix(1.00031 0 0 1 460 141)"/><path d="M296.771 156.546 291.286 151.058 332.426 144.07C332.381 143.95 332.335 143.832 332.29 143.712L303.156 148.66 318.661 126.163C318.558 126.091 318.454 126.02 318.351 125.949L302.641 148.748 290.959 150.732 287.061 146.83C287.08 146.889 287.157 147.193 287.157 147.193 287.157 147.193 286.848 147.103 286.786 147.085L290.647 150.95 281.138 163.429 260.785 165.225C260.791 165.349 260.802 165.474 260.81 165.599L280.832 163.832 267.813 180.918C267.894 181.017 267.975 181.117 268.058 181.216L290.916 151.218 292.703 153.007 292.703 170.203 275.129 187.78C275.234 187.854 275.338 187.927 275.443 188.001L292.703 170.734 292.705 194.504C292.831 194.517 292.955 194.529 293.081 194.542L293.079 153.383 302.462 162.773 295.658 194.722C295.786 194.726 295.912 194.733 296.04 194.737L302.778 163.09 323.546 183.873C323.637 183.785 323.727 183.698 323.815 183.609L297.312 157.089 333.369 167.113C333.403 166.992 333.433 166.87 333.465 166.749L296.771 156.546Z" fill="#505050" transform="matrix(1.00031 0 0 1 460 141)"/><path d="M46.431 130.361C45.4447 130.041 44.4765 129.759 43.5377 129.515 44.5356 129.259 45.5686 128.961 46.6216 128.619 53.5849 126.356 58.1819 121.297 58.1819 121.297 58.1819 121.297 51.4891 119.905 44.5256 122.168 43.5394 122.488 42.5907 122.83 41.6874 123.184 42.3445 122.391 43.0048 121.542 43.6555 120.646 47.9591 114.723 48.7042 107.928 48.7042 107.928 48.7042 107.928 42.4717 110.736 38.1683 116.659 37.5588 117.498 36.9919 118.332 36.4691 119.15 36.5345 118.122 36.5699 117.047 36.5699 115.94 36.5699 108.618 33.1785 102.683 33.1785 102.683 33.1785 102.683 29.7871 108.618 29.7871 115.94 29.7871 116.977 29.8184 117.985 29.8762 118.953 29.3249 118.083 28.7217 117.193 28.071 116.297 23.7674 110.374 17.5351 107.565 17.5351 107.565 17.5351 107.565 18.2801 114.36 22.5837 120.284 23.1933 121.123 23.8111 121.92 24.4269 122.669 23.4694 122.289 22.4582 121.924 21.4052 121.582 14.4419 119.319 7.74896 120.71 7.74896 120.71 7.74896 120.71 12.3458 125.77 19.3092 128.032 20.2955 128.353 21.2637 128.635 22.2026 128.879 21.2047 129.134 20.1716 129.433 19.1187 129.775 12.1554 132.038 7.55837 137.097 7.55837 137.097 7.55837 137.097 14.2512 138.488 21.2146 136.226 22.2009 135.905 23.1495 135.564 24.0529 135.21 23.3958 136.003 22.7354 136.852 22.0847 137.748 17.7811 143.671 17.036 150.466 17.036 150.466 17.036 150.466 23.2685 147.658 27.5719 141.734 28.1815 140.895 28.7484 140.062 29.2711 139.244 29.2057 140.272 29.1703 141.347 29.1703 142.454 29.1703 149.776 32.5618 155.711 32.5618 155.711 32.5618 155.711 35.9532 149.776 35.9532 142.454 35.9532 141.417 35.9218 140.409 35.8641 139.441 36.4154 140.311 37.0186 141.201 37.6693 142.097 41.9729 148.02 48.2052 150.829 48.2052 150.829 48.2052 150.829 47.4601 144.034 43.1565 138.11 42.5469 137.271 41.9291 136.474 41.3133 135.725 42.2708 136.105 43.282 136.47 44.335 136.812 51.2983 139.075 57.9913 137.684 57.9913 137.684 57.9913 137.684 53.3943 132.624 46.431 130.361ZM32.8713 129.254C32.8601 129.25 32.8486 129.248 32.8373 129.244 32.8306 129.234 32.8228 129.226 32.8157 129.216 32.8161 129.204 32.8149 129.192 32.8148 129.181 32.8221 129.171 32.8279 129.161 32.8349 129.151 32.8463 129.148 32.8571 129.143 32.8683 129.139 32.8796 129.143 32.8911 129.146 32.9024 129.15 32.9091 129.16 32.9168 129.168 32.924 129.178 32.9236 129.19 32.9247 129.201 32.9249 129.213 32.9176 129.223 32.9118 129.233 32.9048 129.243 32.8935 129.246 32.8826 129.25 32.8713 129.254Z" fill="#FFFFFF" transform="matrix(1.00031 0 0 1 460 141)"/><path d="M39.6504 129.779C39.1572 129.619 38.6732 129.478 38.2037 129.356 38.7027 129.228 39.219 129.079 39.7455 128.908 43.2272 127.776 45.5256 125.247 45.5256 125.247 45.5256 125.247 42.1791 124.551 38.6974 125.683 38.2042 125.843 37.73 126.013 37.2783 126.19 37.6069 125.794 37.9369 125.369 38.2623 124.922 40.4141 121.96 40.7866 118.562 40.7866 118.562 40.7866 118.562 37.6704 119.967 35.5186 122.928 35.2139 123.348 34.9305 123.765 34.669 124.173 34.7017 123.659 34.7194 123.122 34.7194 122.568 34.7194 118.908 33.0238 115.94 33.0238 115.94 33.0238 115.94 31.3282 118.908 31.3282 122.568 31.3282 123.087 31.344 123.591 31.3727 124.075 31.097 123.64 30.7955 123.195 30.4701 122.747 28.3183 119.785 25.2021 118.381 25.2021 118.381 25.2021 118.381 25.5746 121.779 27.7264 124.741 28.0311 125.16 28.3401 125.559 28.648 125.933 28.1693 125.743 27.6636 125.561 27.1372 125.39 23.6555 124.258 20.309 124.954 20.309 124.954 20.309 124.954 22.6074 127.484 26.0891 128.615 26.5823 128.775 27.0663 128.916 27.5358 129.038 27.0368 129.166 26.5204 129.315 25.994 129.486 22.5123 130.618 20.2139 133.147 20.2139 133.147 20.2139 133.147 23.5604 133.843 27.042 132.711 27.5353 132.551 28.0095 132.381 28.4612 132.204 28.1326 132.6 27.8025 133.025 27.4772 133.472 25.3254 136.434 24.9528 139.832 24.9528 139.832 24.9528 139.832 28.0691 138.427 30.2209 135.466 30.5256 135.046 30.809 134.629 31.0705 134.221 31.0378 134.735 31.0201 135.272 31.0201 135.826 31.0201 139.486 32.7157 142.454 32.7157 142.454 32.7157 142.454 34.4113 139.486 34.4113 135.826 34.4113 135.307 34.3955 134.803 34.3668 134.319 34.6425 134.754 34.944 135.199 35.2694 135.647 37.4212 138.609 40.5374 140.013 40.5374 140.013 40.5374 140.013 40.1649 136.615 38.0131 133.653 37.7084 133.234 37.3994 132.835 37.0915 132.461 37.5702 132.651 38.0758 132.833 38.6023 133.004 42.084 134.136 45.4305 133.44 45.4305 133.44 45.4305 133.44 43.132 130.91 39.6504 129.779ZM32.8708 129.226C32.8651 129.224 32.8595 129.222 32.8537 129.221 32.8503 129.216 32.8463 129.211 32.843 129.206 32.8431 129.2 32.8426 129.195 32.8426 129.189 32.8462 129.184 32.8492 129.179 32.8527 129.174 32.8586 129.172 32.8638 129.17 32.8695 129.168 32.8751 129.17 32.8807 129.172 32.8864 129.173 32.8898 129.178 32.8937 129.183 32.8971 129.188 32.8969 129.194 32.8975 129.199 32.8975 129.205 32.8939 129.21 32.8909 129.215 32.8873 129.22 32.8817 129.221 32.8764 129.224 32.8708 129.226Z" fill="#E6E6E6" transform="matrix(1.00031 0 0 1 460 141)"/><path d="M35.953 129.197C35.953 130.9 34.5727 132.28 32.87 132.28 31.1673 132.28 29.7871 130.9 29.7871 129.197 29.7871 127.494 31.1673 126.114 32.87 126.114 34.5727 126.114 35.953 127.494 35.953 129.197Z" fill="#FFC000" transform="matrix(1.00031 0 0 1 460 141)"/><path d="M331.279 54.3848C330.294 54.0644 329.326 53.7828 328.386 53.5384 329.384 53.283 330.418 52.9843 331.471 52.6422 338.433 50.3797 343.031 45.3201 343.031 45.3201 343.031 45.3201 336.337 43.9288 329.375 46.1913 328.388 46.5118 327.439 46.8532 326.537 47.2073 327.193 46.4141 327.854 45.5654 328.505 44.6696 332.807 38.7463 333.553 31.9511 333.553 31.9511 333.553 31.9511 327.321 34.7594 323.018 40.6829 322.407 41.522 321.841 42.3556 321.317 43.173 321.383 42.1451 321.419 41.0703 321.419 39.9632 321.419 32.6415 318.028 26.7062 318.028 26.7062 318.028 26.7062 314.637 32.6415 314.637 39.9632 314.637 41.0002 314.667 42.008 314.725 42.9764 314.174 42.1063 313.571 41.2161 312.921 40.3205 308.616 34.3972 302.384 31.5887 302.384 31.5887 302.384 31.5887 303.13 38.3839 307.432 44.3072 308.043 45.1463 308.66 45.943 309.276 46.6926 308.318 46.3128 307.308 45.9472 306.254 45.6051 299.292 43.3426 292.598 44.7339 292.598 44.7339 292.598 44.7339 297.196 49.7933 304.158 52.056 305.145 52.3764 306.113 52.658 307.051 52.9024 306.054 53.1578 305.021 53.4565 303.968 53.7986 297.004 56.0611 292.408 61.1207 292.408 61.1207 292.408 61.1207 299.1 62.512 306.064 60.2495 307.051 59.929 307.998 59.5876 308.902 59.2337 308.244 60.0269 307.584 60.8756 306.934 61.7714 302.63 67.6947 301.885 74.4899 301.885 74.4899 301.885 74.4899 308.116 71.6816 312.421 65.7581 313.03 64.919 313.597 64.0854 314.12 63.268 314.054 64.2959 314.02 65.3707 314.02 66.4778 314.02 73.7995 317.411 79.7348 317.411 79.7348 317.411 79.7348 320.802 73.7995 320.802 66.4778 320.802 65.4408 320.77 64.433 320.714 63.4646 321.264 64.3346 321.868 65.2248 322.518 66.1205 326.822 72.0438 333.053 74.8523 333.053 74.8523 333.053 74.8523 332.309 68.0571 328.005 62.1338 327.396 61.2947 326.777 60.4979 326.163 59.7483 327.119 60.1282 328.131 60.4938 329.183 60.8359 336.147 63.0984 342.841 61.7071 342.841 61.7071 342.841 61.7071 338.243 56.6473 331.279 54.3848ZM317.719 53.2777C317.71 53.2738 317.697 53.2711 317.686 53.2676 317.68 53.2576 317.672 53.249 317.665 53.2394 317.665 53.2274 317.665 53.2157 317.663 53.2039 317.671 53.1943 317.676 53.1843 317.684 53.1745 317.695 53.1712 317.706 53.1665 317.718 53.1627 317.729 53.1666 317.74 53.1693 317.751 53.1728 317.759 53.1828 317.766 53.1915 317.772 53.201 317.772 53.2131 317.774 53.2247 317.774 53.2366 317.766 53.2461 317.761 53.2561 317.753 53.2659 317.742 53.2693 317.733 53.274 317.719 53.2777Z" fill="#E6E6E6" transform="matrix(1.00031 0 0 1 460 141)"/><path d="M324.499 53.8025C324.007 53.6424 323.522 53.5016 323.052 53.3792 323.552 53.2514 324.069 53.1022 324.595 52.9311 328.076 51.8 330.375 49.2702 330.375 49.2702 330.375 49.2702 327.027 48.5745 323.546 49.7059 323.054 49.866 322.578 50.0367 322.127 50.2137 322.456 49.8171 322.787 49.3927 323.112 48.945 325.262 45.9833 325.636 42.5856 325.636 42.5856 325.636 42.5856 322.52 43.9899 320.368 46.9515 320.063 47.371 319.78 47.7879 319.518 48.1965 319.55 47.6824 319.569 47.1452 319.569 46.5915 319.569 42.9307 317.874 39.963 317.874 39.963 317.874 39.963 316.178 42.9307 316.178 46.5915 316.178 47.1101 316.193 47.6138 316.221 48.0982 315.947 47.6631 315.644 47.2182 315.319 46.7703 313.167 43.8085 310.051 42.4044 310.051 42.4044 310.051 42.4044 310.425 45.8021 312.575 48.7638 312.879 49.1833 313.19 49.5816 313.498 49.9566 313.018 49.7666 312.513 49.5839 311.987 49.4128 308.505 48.2817 305.158 48.9771 305.158 48.9771 305.158 48.9771 307.457 51.5069 310.938 52.6381 311.432 52.7982 311.915 52.939 312.385 53.0614 311.885 53.1892 311.37 53.3384 310.844 53.5095 307.361 54.6406 305.062 57.1704 305.062 57.1704 305.062 57.1704 308.41 57.8661 311.891 56.7347 312.385 56.5746 312.859 56.4039 313.31 56.2269 312.981 56.6235 312.652 57.0479 312.327 57.4956 310.175 60.4573 309.802 63.855 309.802 63.855 309.802 63.855 312.919 62.4507 315.069 59.4891 315.376 59.0696 315.657 58.6527 315.919 58.2441 315.887 58.7582 315.87 59.2954 315.87 59.8491 315.87 63.5099 317.565 66.4776 317.565 66.4776 317.565 66.4776 319.261 63.5099 319.261 59.8491 319.261 59.3305 319.244 58.8268 319.216 58.3424 319.492 58.7775 319.793 59.2224 320.118 59.6703 322.27 62.6321 325.386 64.0362 325.386 64.0362 325.386 64.0362 325.014 60.6385 322.862 57.6768 322.558 57.2573 322.249 56.859 321.941 56.484 322.419 56.674 322.924 56.8567 323.45 57.0278 326.933 58.1589 330.279 57.4635 330.279 57.4635 330.279 57.4635 327.98 54.9339 324.499 53.8025ZM317.719 53.249C317.714 53.2469 317.708 53.2458 317.703 53.2439 317.699 53.239 317.695 53.2345 317.691 53.2298 317.691 53.2238 317.691 53.218 317.691 53.2121 317.695 53.2074 317.697 53.2024 317.701 53.1975 317.708 53.1958 317.712 53.1935 317.718 53.1916 317.723 53.1937 317.729 53.1948 317.734 53.1967 317.738 53.2016 317.742 53.2061 317.746 53.2108 317.746 53.2168 317.746 53.2227 317.746 53.2285 317.742 53.2332 317.74 53.2383 317.736 53.2431 317.731 53.2448 317.725 53.2471 317.719 53.249Z" fill="#FFFFFF" transform="matrix(1.00031 0 0 1 460 141)"/><path d="M320.802 53.2204C320.802 54.9231 319.422 56.3034 317.719 56.3034 316.017 56.3034 314.636 54.9231 314.636 53.2204 314.636 51.5177 316.017 50.1374 317.719 50.1374 319.422 50.1374 320.802 51.5177 320.802 53.2204Z" fill="#FFC000" transform="matrix(1.00031 0 0 1 460 141)"/></g></svg>