<svg width="359" height="360" xmlns="http://www.w3.org/2000/svg" xmlns:xlink="http://www.w3.org/1999/xlink" overflow="hidden"><defs><clipPath id="clip0"><rect x="34" y="62" width="359" height="360"/></clipPath></defs><g clip-path="url(#clip0)" transform="translate(-34 -62)"><path d="M45.4281 332.731C27.1945 275.121 31.9695 218.833 52.2476 196.152 97.2595 145.807 139.543 171.172 158.675 127.35 173.303 93.8422 153.346 66.4722 171.688 52.8923 188.548 40.4088 209.269 60.6803 244.439 46.6786 262.167 39.6205 269.665 32.461 283.68 31.6145 303.794 30.3999 322.617 44.3032 327.026 63.2483 332.079 84.9641 306.167 92.5779 297.339 127.454 286.519 170.199 317.126 191.614 302.862 213.152 285.029 240.079 231.779 214.768 206.898 246.202 190.013 267.533 202.595 294.275 186.664 302.287 172.097 309.614 151.249 296.379 129.975 315.132 106.691 335.657 90.3031 314.781 45.4281 332.731Z" fill="#2F2F2F" transform="matrix(1 0 0 1.00279 34 62)"/><path d="M67.5503 283.35C66.7026 283.328 65.8866 283.449 65.1222 283.687 65.1162 283.689 65.1162 283.692 65.1222 283.694 68.1505 284.651 70.3464 287.482 70.3464 290.827 70.3464 294.171 68.1505 297.002 65.1222 297.959 65.1162 297.961 65.1162 297.964 65.1222 297.966 65.8275 298.186 66.5769 298.306 67.3548 298.306 71.6067 298.306 75.0299 294.758 74.8253 290.461 74.641 286.593 71.4208 283.45 67.5503 283.35Z" fill="#505050" transform="matrix(1 0 0 1.00279 34 62)"/><path d="M70.3464 290.827C70.3464 294.768 68.0024 297.962 65.111 297.962 62.2196 297.962 59.8756 294.768 59.8756 290.827 59.8756 286.886 62.2196 283.691 65.111 283.691 68.0024 283.691 70.3464 286.886 70.3464 290.827Z" fill="#737373" transform="matrix(1 0 0 1.00279 34 62)"/><path d="M105.111 261.875C104.386 259.919 103.241 258.084 101.669 256.513 97.1271 251.97 90.3906 250.962 84.8721 253.484 81.0491 259.352 79.1546 270.721 79.9385 277.055 80.1247 277.263 80.3158 277.467 80.5151 277.667 83.3557 280.508 87.0549 281.963 90.7773 282.04 94.9106 279.995 104.484 266.632 105.111 261.875Z" fill="#D2D2D2" transform="matrix(1 0 0 1.00279 34 62)"/><path d="M105.111 261.875C104.386 259.919 103.241 258.084 101.669 256.513 97.1271 251.97 90.3906 250.962 84.8721 253.484 81.0491 259.352 79.1546 270.721 79.9385 277.055 80.1247 277.263 80.3158 277.467 80.5151 277.667 83.3557 280.508 87.0549 281.963 90.7773 282.04 94.9106 279.995 104.484 266.632 105.111 261.875Z" fill="#D2D2D2" transform="matrix(1 0 0 1.00279 34 62)"/><path d="M101.67 277.667C105.939 273.397 107.084 267.189 105.111 261.875 103.366 263.126 101.627 264.594 99.9576 266.263 94.7315 271.489 91.4504 277.397 90.7773 282.04 94.7102 282.123 98.6685 280.668 101.67 277.667Z" fill="#E6E6E6" transform="matrix(1 0 0 1.00279 34 62)"/><path d="M101.67 277.667C105.939 273.397 107.084 267.189 105.111 261.875 103.366 263.126 101.627 264.594 99.9576 266.263 94.7315 271.489 91.4504 277.397 90.7773 282.04 94.7102 282.123 98.6685 280.668 101.67 277.667Z" fill="#E6E6E6" transform="matrix(1 0 0 1.00279 34 62)"/><path d="M84.8721 253.484C83.2936 254.205 81.8139 255.213 80.5147 256.513 74.8728 262.155 74.6817 271.182 79.9385 277.055 83.0704 273.448 85.1881 266.573 85.1881 258.681 85.1877 256.887 85.0778 255.146 84.8721 253.484Z" fill="#E6E6E6" transform="matrix(1 0 0 1.00279 34 62)"/><path d="M84.8721 253.484C83.2936 254.205 81.8139 255.213 80.5147 256.513 74.8728 262.155 74.6817 271.182 79.9385 277.055 83.0704 273.448 85.1881 266.573 85.1881 258.681 85.1877 256.887 85.0778 255.146 84.8721 253.484Z" fill="#E6E6E6" transform="matrix(1 0 0 1.00279 34 62)"/><path d="M95.1007 268.48C95.1007 269.212 94.5137 269.805 93.7895 269.805 93.0653 269.805 92.4782 269.212 92.4782 268.48 92.4782 267.748 93.0653 267.155 93.7895 267.155 94.5137 267.155 95.1007 267.748 95.1007 268.48Z" fill="#F2F2F2" transform="matrix(1 0 0 1.00279 34 62)"/><path d="M94.4291 262.492C94.4291 263.591 93.5507 264.482 92.4672 264.482 91.3836 264.482 90.5052 263.591 90.5052 262.492 90.5052 261.394 91.3836 260.503 92.4672 260.503 93.5507 260.503 94.4291 261.394 94.4291 262.492Z" fill="#F2F2F2" transform="matrix(1 0 0 1.00279 34 62)"/><path d="M103.775 218.344C103.775 220.412 102.098 222.089 100.03 222.089 97.9619 222.089 96.2853 220.412 96.2853 218.344 96.2853 216.276 97.9619 214.599 100.03 214.599 102.098 214.599 103.775 216.276 103.775 218.344Z" fill="#FFC000" transform="matrix(0.706125 -0.708092 0.706125 0.708092 -90.9219 196.872)"/><path d="M116.177 250.153C118.271 251.125 120.639 252.123 123.134 253.089 124.543 253.136 125.98 253.029 127.423 252.742 129.73 252.284 131.85 251.416 133.729 250.234 132.905 246.289 128.118 238.311 123.331 233.425 118.279 228.267 113.06 224.749 107.802 224.693 105.454 228.553 104.488 233.269 105.438 238.05 106.043 241.094 107.36 243.814 109.175 246.08 111.115 247.735 114.046 249.164 116.177 250.153Z" fill="#FFFFFF" transform="matrix(1 0 0 1.00279 34 62)"/><path d="M123.93 231.331C130.72 239.972 139.985 239.209 142.062 238.326 142.583 235.905 142.631 233.341 142.118 230.758 140.221 221.214 131.37 214.825 121.879 215.805 120.639 218.167 119.542 225.746 123.93 231.331Z" fill="#FFFFFF" transform="matrix(1 0 0 1.00279 34 62)"/><path d="M123.134 253.089C121.751 251.404 120.127 249.505 117.029 248.403 114.815 247.616 114.681 248.242 112.263 247.444 111.902 247.326 110.679 246.905 109.192 246.09 109.189 246.088 109.185 246.092 109.187 246.095 112.541 250.273 117.602 252.889 123.087 253.087 123.091 253.087 123.112 253.088 123.134 253.089Z" fill="#FFC000" transform="matrix(1 0 0 1.00279 34 62)"/><path d="M142.062 238.326C140.778 238.088 139.454 237.4 138.607 236.228 136.469 233.266 136.749 230.077 134.069 228.742 131.186 227.306 127.801 231.302 125.487 229.686 123.73 228.459 124.06 225.029 124.099 224.624 124.416 221.333 126.681 219.821 125.94 218.539 125.253 217.351 123.062 218.228 122.201 216.995 121.98 216.677 121.881 216.266 121.879 215.805 121.299 215.865 120.716 215.949 120.133 216.065 114.785 217.128 110.428 220.375 107.802 224.693 110.572 225.607 113.741 230.379 114.331 234.833 114.891 239.059 113.356 244.717 113.294 244.945 113.293 244.951 113.296 244.95 113.3 244.946 115.976 243.064 119.438 241.236 121.95 242.469 123.91 243.431 123.92 245.584 125.611 247.46 126.934 248.929 129.282 250.219 133.726 250.234 137.994 247.551 141.005 243.234 142.062 238.326Z" fill="#FFC000" transform="matrix(1 0 0 1.00279 34 62)"/><path d="M145.977 191.051C141.62 195.408 140.514 201.785 142.658 207.168L162.094 187.732C156.711 185.588 150.334 186.693 145.977 191.051Z" fill="#505050" transform="matrix(1 0 0 1.00279 34 62)"/><path d="M151.167 215.582C151.878 215.856 152.606 216.074 153.343 216.235 153.343 216.235 157.212 215.774 160.877 213.53 164.542 211.286 171.488 200.812 171.488 200.812 171.403 199.257 171.076 197.714 170.508 196.241 170.508 196.241 160.895 196.224 155.342 202.835 149.789 209.446 151.167 215.582 151.167 215.582Z" fill="#737373" transform="matrix(1 0 0 1.00279 34 62)"/><path d="M167.131 212.205C170.259 209.076 171.71 204.907 171.488 200.812 171.488 200.812 168.016 200.16 163.429 207.445 159.063 214.379 153.665 216.136 153.357 216.231 153.349 216.233 153.35 216.237 153.358 216.238 158.168 217.285 163.392 215.944 167.131 212.205Z" fill="#505050" transform="matrix(1 0 0 1.00279 34 62)"/><path d="M162.094 187.732C162.094 187.732 155.761 188.671 148.621 196.868 144.904 201.135 142.658 207.168 142.658 207.168 143.388 209.002 144.493 210.721 145.977 212.205 146.14 212.368 146.308 212.526 146.477 212.68 146.477 212.68 152.56 210.215 156.24 204.78 159.919 199.344 164.981 189.271 164.981 189.271 164.066 188.646 163.098 188.131 162.094 187.732Z" fill="#2F2F2F" transform="matrix(1 0 0 1.00279 34 62)"/><path d="M167.131 191.051C166.459 190.379 165.738 189.788 164.981 189.271 164.981 189.271 158.001 192.494 154.703 199.248 149.15 210.619 146.477 212.68 146.477 212.68 147.884 213.966 149.479 214.931 151.167 215.582 151.167 215.582 151.265 207.974 157.876 207.181 164.188 206.423 170.508 196.241 170.508 196.241 169.78 194.35 168.657 192.576 167.131 191.051Z" fill="#505050" transform="matrix(1 0 0 1.00279 34 62)"/><path d="M164.053 201.079C164.053 201.808 163.462 202.399 162.733 202.399 162.004 202.399 161.414 201.808 161.414 201.079 161.414 200.35 162.004 199.76 162.733 199.76 163.462 199.76 164.053 200.35 164.053 201.079Z" fill="#737373" transform="matrix(1 0 0 1.00279 34 62)"/><path d="M165.966 195.008C165.966 196.101 165.08 196.987 163.986 196.987 162.893 196.987 162.007 196.101 162.007 195.008 162.007 193.914 162.893 193.028 163.986 193.028 165.08 193.028 165.966 193.914 165.966 195.008Z" fill="#2F2F2F" transform="matrix(1 0 0 1.00279 34 62)"/><path d="M211.332 149.458C211.332 149.458 205.904 145.353 193.523 145.47 181.594 145.582 175.701 151.298 175.701 151.298 175 152.32 174.389 153.384 173.876 154.484 173.876 154.484 176.508 157.212 193.486 157.212 210.464 157.212 213.855 153.105 213.855 153.105 213.148 151.828 212.307 150.606 211.332 149.458Z" fill="#E6E6E6" transform="matrix(1 0 0 1.00279 34 62)"/><path d="M210.086 148.096C208.867 146.877 207.539 145.833 206.138 144.953 198.833 140.364 189.563 140.373 182.267 144.976 180.878 145.852 179.563 146.887 178.354 148.096 177.357 149.093 176.479 150.164 175.709 151.286 175.704 151.292 175.705 151.295 175.713 151.292 176.051 151.125 183.448 147.567 197.393 147.567 206.616 147.567 211.039 149.336 211.317 149.452 211.325 149.455 211.327 149.452 211.321 149.445 210.929 148.984 210.522 148.532 210.086 148.096Z" fill="#D2D2D2" transform="matrix(1 0 0 1.00279 34 62)"/><path d="M213.855 153.105C213.855 153.105 209.125 151.005 195.013 151.005 179.676 151.005 173.876 154.484 173.876 154.484 172.721 156.966 172.049 159.616 171.85 162.295L214.671 169.964 216.095 168.942C217.298 163.634 216.551 157.976 213.855 153.105Z" fill="#F2F2F2" transform="matrix(1 0 0 1.00279 34 62)"/><path d="M216.095 168.942C216.095 168.942 197.127 168.136 200.302 161.053 203.74 153.385 171.85 162.295 171.85 162.295 171.723 164.008 171.79 165.731 172.055 167.431 172.055 167.431 175.536 170.413 192.838 171.996 210.874 173.646 215.218 171.868 215.218 171.868 215.578 170.91 215.87 169.933 216.095 168.942Z" fill="#D2D2D2" transform="matrix(1 0 0 1.00279 34 62)"/><path d="M216.095 168.942C216.095 168.942 197.127 168.136 200.302 161.053 203.74 153.385 171.85 162.295 171.85 162.295 171.723 164.008 171.79 165.731 172.055 167.431 172.055 167.431 175.536 170.413 192.838 171.996 210.874 173.646 215.218 171.868 215.218 171.868 215.578 170.91 215.87 169.933 216.095 168.942Z" fill="#D2D2D2" transform="matrix(1 0 0 1.00279 34 62)"/><path d="M208.574 181.203C208.574 181.203 206.051 179.276 194.309 179.276 182.566 179.276 179.865 181.203 179.865 181.203 188.162 188.126 200.277 188.126 208.574 181.203Z" fill="#D2D2D2" transform="matrix(1 0 0 1.00279 34 62)"/><path d="M210.086 179.828C212.421 177.493 214.127 174.769 215.218 171.868L172.055 167.431C172.761 171.968 174.858 176.332 178.354 179.828 178.841 180.314 179.347 180.77 179.865 181.203 179.865 181.203 189.196 182.736 194.484 182.736 199.773 182.736 208.574 181.203 208.574 181.203 209.093 180.77 209.599 180.314 210.086 179.828Z" fill="#E6E6E6" transform="matrix(1 0 0 1.00279 34 62)"/><path d="M210.086 179.828C212.421 177.493 214.127 174.769 215.218 171.868L172.055 167.431C172.761 171.968 174.858 176.332 178.354 179.828 178.841 180.314 179.347 180.77 179.865 181.203 179.865 181.203 189.196 182.736 194.484 182.736 199.773 182.736 208.574 181.203 208.574 181.203 209.093 180.77 209.599 180.314 210.086 179.828Z" fill="#E6E6E6" transform="matrix(1 0 0 1.00279 34 62)"/><path d="M200.252 175.281C200.252 177.346 195.397 179.021 189.407 179.021 183.418 179.021 178.562 177.346 178.562 175.281 178.562 173.216 183.418 171.541 189.407 171.541 195.397 171.541 200.252 173.216 200.252 175.281Z" fill="#D2D2D2" transform="matrix(1 0 0 1.00279 34 62)"/><path d="M194.701 174.327C194.701 175.178 192.699 175.868 190.23 175.868 187.761 175.868 185.76 175.178 185.76 174.327 185.76 173.477 187.761 172.787 190.23 172.787 192.699 172.787 194.701 173.477 194.701 174.327Z" fill="#E6E6E6" transform="matrix(1 0 0 1.00279 34 62)"/><path d="M250.791 133.833C251.853 132.772 252.755 131.613 253.507 130.387 253.507 130.387 250.328 121.237 245.018 114.506 239.707 107.775 231.17 103.043 231.17 103.043 228.681 103.948 226.344 105.395 224.348 107.391 222.162 109.577 220.635 112.172 219.758 114.928 219.758 114.928 223.253 121.387 231.106 128.043 238.959 134.7 246.247 137.18 246.247 137.18 247.882 136.322 249.417 135.208 250.791 133.833Z" fill="#F2F2F2" transform="matrix(1 0 0 1.00279 34 62)"/><path d="M250.791 133.833C251.853 132.772 252.755 131.613 253.507 130.387 253.507 130.387 250.328 121.237 245.018 114.506 239.707 107.775 231.17 103.043 231.17 103.043 228.681 103.948 226.344 105.395 224.348 107.391 222.162 109.577 220.635 112.172 219.758 114.928 219.758 114.928 223.253 121.387 231.106 128.043 238.959 134.7 246.247 137.18 246.247 137.18 247.882 136.322 249.417 135.208 250.791 133.833Z" fill="#F2F2F2" transform="matrix(1 0 0 1.00279 34 62)"/><path d="M219.758 114.928C219.431 115.955 219.193 117.003 219.048 118.062 219.048 118.062 222.356 126.099 227.965 131.409 233.574 136.719 240.12 139.133 240.12 139.133 242.236 138.844 244.312 138.194 246.247 137.18L219.758 114.928Z" fill="#D2D2D2" transform="matrix(1 0 0 1.00279 34 62)"/><path d="M219.758 114.928C219.431 115.955 219.193 117.003 219.048 118.062 219.048 118.062 222.356 126.099 227.965 131.409 233.574 136.719 240.12 139.133 240.12 139.133 242.236 138.844 244.312 138.194 246.247 137.18L219.758 114.928Z" fill="#D2D2D2" transform="matrix(1 0 0 1.00279 34 62)"/><path d="M224.348 133.833C228.649 138.135 234.524 139.9 240.12 139.134L219.048 118.062C218.282 123.658 220.047 129.532 224.348 133.833Z" fill="#E6E6E6" transform="matrix(1 0 0 1.00279 34 62)"/><path d="M224.348 133.833C228.649 138.135 234.524 139.9 240.12 139.134L219.048 118.062C218.282 123.658 220.047 129.532 224.348 133.833Z" fill="#E6E6E6" transform="matrix(1 0 0 1.00279 34 62)"/><path d="M250.791 107.391C245.485 102.085 237.785 100.639 231.17 103.043L253.507 130.387C257.934 123.184 257.032 113.631 250.791 107.391Z" fill="#D2D2D2" transform="matrix(1 0 0 1.00279 34 62)"/><path d="M250.791 107.391C245.485 102.085 237.785 100.639 231.17 103.043L253.507 130.387C257.934 123.184 257.032 113.631 250.791 107.391Z" fill="#D2D2D2" transform="matrix(1 0 0 1.00279 34 62)"/><path d="M253.638 130.144C253.268 130.773 252.853 131.383 252.403 131.974 254.114 135.057 254.676 137.375 253.719 138.332 252.723 139.328 250.25 138.675 246.977 136.797 243.031 134.533 237.919 130.487 232.807 125.375 227.695 120.263 223.648 115.151 221.384 111.205 219.506 107.931 218.853 105.459 219.85 104.463 220.807 103.506 223.124 104.068 226.208 105.779 226.799 105.328 227.409 104.914 228.038 104.543 220.868 99.3192 215.129 96.8948 213.248 98.7762 211.273 100.751 214.042 106.976 219.814 114.643 222.792 118.599 226.568 122.938 230.906 127.276 235.244 131.614 239.583 135.39 243.538 138.368 251.206 144.14 257.431 146.909 259.406 144.934 261.287 143.052 258.863 137.313 253.638 130.144Z" fill="#E6E6E6" transform="matrix(1 0 0 1.00279 34 62)"/><path d="M277.701 80.6254C274.101 77.0253 265.51 76.3623 262.606 80.3599 260.29 84.6155 260.929 90.0529 264.529 93.653 268.129 97.2535 273.566 97.8926 277.822 95.5755 281.291 93.714 281.302 84.2255 277.701 80.6254Z" fill="#737373" transform="matrix(1 0 0 1.00279 34 62)"/><path d="M265.219 77.1517C264.121 78.0821 263.255 79.1711 262.612 80.3491 262.609 80.355 262.611 80.3573 262.617 80.3539 266.872 78.0443 272.302 78.6853 275.899 82.2824 279.496 85.8795 280.137 91.3105 277.828 95.5647 277.824 95.5707 277.827 95.5729 277.833 95.5695 278.752 95.0684 279.617 94.4308 280.395 93.653 284.915 89.1322 284.771 81.7121 279.961 77.3761 276.034 73.8354 269.254 73.7337 265.219 77.1517Z" fill="#505050" transform="matrix(1 0 0 1.00279 34 62)"/><path d="M279.176 82.7254C279.176 83.116 276.963 83.4326 274.234 83.4326 271.505 83.4326 269.292 83.116 269.292 82.7254 269.292 82.3348 271.505 82.0182 274.234 82.0182 276.963 82.0182 279.176 82.3348 279.176 82.7254Z" fill="#2F2F2F" transform="matrix(0.706175 -0.708042 0.706075 0.708142 55.7838 280.414)"/><path d="M301.086 56.9662C298.096 53.976 290.266 53.2767 287.673 56.6192 286.582 60.4145 287.529 64.6724 290.52 67.6625 293.51 70.6531 297.768 71.6003 301.563 70.5091 304.676 67.836 304.077 59.9567 301.086 56.9662Z" fill="#505050" transform="matrix(1 0 0 1.00279 34 62)"/><path d="M290.884 51.4481C289.295 52.9035 288.227 54.6993 287.675 56.6124 287.674 56.6162 287.676 56.6184 287.68 56.6173 291.473 55.5287 295.728 56.4767 298.717 59.4654 301.705 62.4537 302.653 66.7085 301.565 70.5024 301.564 70.5061 301.566 70.5083 301.57 70.5072 303.333 69.9986 304.996 69.0514 306.385 67.6625 310.934 63.1133 310.759 55.63 305.863 51.306 301.605 47.5462 295.073 47.6116 290.884 51.4481Z" fill="#737373" transform="matrix(1 0 0 1.00279 34 62)"/><path d="M302.918 55.6123C302.918 56.0028 300.706 56.3194 297.977 56.3194 295.247 56.3194 293.035 56.0028 293.035 55.6123 293.035 55.2217 295.247 54.9051 297.977 54.9051 300.706 54.9051 302.918 55.2217 302.918 55.6123Z" fill="#2F2F2F" transform="matrix(0.706175 -0.708042 0.706075 0.708142 81.8693 289.274)"/><path d="M304.791 66.0433C304.791 66.4338 302.578 66.7504 299.849 66.7504 297.12 66.7504 294.907 66.4338 294.907 66.0433 294.907 65.6527 297.12 65.3361 299.849 65.3361 302.578 65.3361 304.791 65.6527 304.791 66.0433Z" fill="#2F2F2F" transform="matrix(0.706175 -0.708042 0.706075 0.708142 75.0524 293.658)"/><path d="M330.97 34.4449C330.97 38.5804 327.617 41.933 323.482 41.933 319.346 41.933 315.994 38.5804 315.994 34.4449 315.994 30.3093 319.346 26.9568 323.482 26.9568 327.617 26.9568 330.97 30.3093 330.97 34.4449Z" fill="#737373" transform="matrix(0.646136 -0.763821 0.7617 0.647936 121.857 321.263)"/><path d="M321.636 35.5568C321.636 35.9703 321.301 36.3056 320.887 36.3056 320.474 36.3056 320.139 35.9703 320.139 35.5568 320.139 35.1432 320.474 34.808 320.887 34.808 321.301 34.808 321.636 35.1432 321.636 35.5568Z" fill="#2F2F2F" transform="matrix(0.646136 -0.763821 0.7617 0.647936 120.095 319.674)"/><path d="M326.048 34.4317C326.048 35.052 325.545 35.5549 324.925 35.5549 324.305 35.5549 323.802 35.052 323.802 34.4317 323.802 33.8113 324.305 33.3085 324.925 33.3085 325.545 33.3085 326.048 33.8113 326.048 34.4317Z" fill="#D2D2D2" transform="matrix(0.646136 -0.763821 0.7617 0.647936 122.376 322.36)"/><path d="M322.241 31.6518C322.241 32.5823 321.487 33.3366 320.556 33.3366 319.626 33.3366 318.872 32.5823 318.872 31.6518 318.872 30.7213 319.626 29.967 320.556 29.967 321.487 29.967 322.241 30.7213 322.241 31.6518Z" fill="#2F2F2F" transform="matrix(0.646136 -0.763821 0.7617 0.647936 122.953 318.04)"/><path d="M96.1828 308.219C96.1828 309.561 95.0946 310.65 93.7521 310.65 92.4096 310.65 91.3214 309.561 91.3214 308.219 91.3214 306.877 92.4096 305.788 93.7521 305.788 95.0946 305.788 96.1828 306.877 96.1828 308.219Z" fill="#FFC000" transform="matrix(1 0 0 1.00279 34 62)"/><path d="M102.391 299.474C102.391 300.145 101.846 300.689 101.175 300.689 100.504 300.689 99.9598 300.145 99.9598 299.474 99.9598 298.802 100.504 298.258 101.175 298.258 101.846 298.258 102.391 298.802 102.391 299.474Z" fill="#D2D2D2" transform="matrix(1 0 0 1.00279 34 62)"/><path d="M117.775 182.215C117.775 182.886 117.231 183.43 116.56 183.43 115.889 183.43 115.344 182.886 115.344 182.215 115.344 181.544 115.889 181 116.56 181 117.231 181 117.775 181.544 117.775 182.215Z" fill="#D2D2D2" transform="matrix(1 0 0 1.00279 34 62)"/><path d="M138.717 164.826C138.717 165.497 138.173 166.041 137.501 166.041 136.83 166.041 136.286 165.497 136.286 164.826 136.286 164.155 136.83 163.611 137.501 163.611 138.173 163.611 138.717 164.155 138.717 164.826Z" fill="#D2D2D2" transform="matrix(1 0 0 1.00279 34 62)"/><path d="M138.343 186.915C138.343 188.258 137.255 189.346 135.912 189.346 134.57 189.346 133.481 188.258 133.481 186.915 133.481 185.573 134.57 184.484 135.912 184.484 137.255 184.484 138.343 185.573 138.343 186.915Z" fill="#505050" transform="matrix(1 0 0 1.00279 34 62)"/><path d="M135.912 174.455C135.912 175.798 134.824 176.886 133.481 176.886 132.139 176.886 131.051 175.798 131.051 174.455 131.051 173.113 132.139 172.025 133.481 172.025 134.824 172.025 135.912 173.113 135.912 174.455Z" fill="#F2F2F2" transform="matrix(1 0 0 1.00279 34 62)"/><path d="M159.845 171.744C159.845 172.415 159.301 172.959 158.63 172.959 157.959 172.959 157.415 172.415 157.415 171.744 157.415 171.073 157.959 170.529 158.63 170.529 159.301 170.529 159.845 171.073 159.845 171.744Z" fill="#D2D2D2" transform="matrix(1 0 0 1.00279 34 62)"/><path d="M165.081 134.535C165.081 135.206 164.537 135.751 163.866 135.751 163.194 135.751 162.65 135.206 162.65 134.535 162.65 133.864 163.194 133.32 163.866 133.32 164.537 133.32 165.081 133.864 165.081 134.535Z" fill="#D2D2D2" transform="matrix(1 0 0 1.00279 34 62)"/><path d="M161.154 147.624C161.154 148.295 160.61 148.839 159.939 148.839 159.268 148.839 158.724 148.295 158.724 147.624 158.724 146.953 159.268 146.408 159.939 146.408 160.61 146.408 161.154 146.953 161.154 147.624Z" fill="#F2F2F2" transform="matrix(1 0 0 1.00279 34 62)"/><path d="M174.056 110.134C174.056 111.477 172.968 112.565 171.625 112.565 170.283 112.565 169.194 111.477 169.194 110.134 169.194 108.792 170.283 107.704 171.625 107.704 172.968 107.704 174.056 108.792 174.056 110.134Z" fill="#FFC000" transform="matrix(1 0 0 1.00279 34 62)"/><path d="M175.552 140.425C175.552 141.768 174.463 142.856 173.121 142.856 171.779 142.856 170.69 141.768 170.69 140.425 170.69 139.083 171.779 137.994 173.121 137.994 174.463 137.994 175.552 139.083 175.552 140.425Z" fill="#D2D2D2" transform="matrix(1 0 0 1.00279 34 62)"/><path d="M147.088 173.277C147.088 174.62 146 175.708 144.658 175.708 143.315 175.708 142.227 174.62 142.227 173.277 142.227 171.935 143.315 170.847 144.658 170.847 146 170.847 147.088 171.935 147.088 173.277Z" fill="#D2D2D2" transform="matrix(1 0 0 1.00279 34 62)"/><path d="M235.896 74.2603C235.896 76.119 234.389 77.6259 232.53 77.6259 230.671 77.6259 229.164 76.119 229.164 74.2603 229.164 72.4015 230.671 70.8946 232.53 70.8946 234.389 70.8946 235.896 72.4015 235.896 74.2603Z" fill="#FFC000" transform="matrix(1 0 0 1.00279 34 62)"/><path d="M250.48 75.6626C250.48 76.3338 249.936 76.878 249.265 76.878 248.593 76.878 248.049 76.3338 248.049 75.6626 248.049 74.9914 248.593 74.4472 249.265 74.4472 249.936 74.4472 250.48 74.9914 250.48 75.6626Z" fill="#D2D2D2" transform="matrix(1 0 0 1.00279 34 62)"/><path d="M241.879 74.9147C241.879 75.5859 241.335 76.1301 240.663 76.1301 239.992 76.1301 239.448 75.5859 239.448 74.9147 239.448 74.2435 239.992 73.6993 240.663 73.6993 241.335 73.6993 241.879 74.2435 241.879 74.9147Z" fill="#D2D2D2" transform="matrix(1 0 0 1.00279 34 62)"/><path d="M274.413 57.9931C274.413 59.3355 273.325 60.4238 271.983 60.4238 270.64 60.4238 269.552 59.3355 269.552 57.9931 269.552 56.6506 270.64 55.5624 271.983 55.5624 273.325 55.5624 274.413 56.6506 274.413 57.9931Z" fill="#D2D2D2" transform="matrix(1 0 0 1.00279 34 62)"/><path d="M238.139 85.666C238.139 87.0084 237.051 88.0967 235.709 88.0967 234.366 88.0967 233.278 87.0084 233.278 85.666 233.278 84.3235 234.366 83.2353 235.709 83.2353 237.051 83.2353 238.139 84.3235 238.139 85.666Z" fill="#D2D2D2" transform="matrix(1 0 0 1.00279 34 62)"/><path d="M235.896 156.915C235.896 158.774 234.389 160.281 232.53 160.281 230.671 160.281 229.164 158.774 229.164 156.915 229.164 155.056 230.671 153.55 232.53 153.55 234.389 153.55 235.896 155.056 235.896 156.915Z" fill="#D2D2D2" transform="matrix(1 0 0 1.00279 34 62)"/><path d="M250.48 158.317C250.48 158.989 249.936 159.533 249.265 159.533 248.593 159.533 248.049 158.989 248.049 158.317 248.049 157.646 248.593 157.102 249.265 157.102 249.936 157.102 250.48 157.646 250.48 158.317Z" fill="#D2D2D2" transform="matrix(1 0 0 1.00279 34 62)"/><path d="M241.879 157.57C241.879 158.241 241.335 158.785 240.663 158.785 239.992 158.785 239.448 158.241 239.448 157.57 239.448 156.898 239.992 156.354 240.663 156.354 241.335 156.354 241.879 156.898 241.879 157.57Z" fill="#D2D2D2" transform="matrix(1 0 0 1.00279 34 62)"/><path d="M274.413 140.648C274.413 141.99 273.325 143.079 271.983 143.079 270.64 143.079 269.552 141.99 269.552 140.648 269.552 139.306 270.64 138.217 271.983 138.217 273.325 138.217 274.413 139.306 274.413 140.648Z" fill="#FFC000" transform="matrix(1 0 0 1.00279 34 62)"/><path d="M238.139 168.321C238.139 169.663 237.051 170.752 235.709 170.752 234.366 170.752 233.278 169.663 233.278 168.321 233.278 166.978 234.366 165.89 235.709 165.89 237.051 165.89 238.139 166.978 238.139 168.321Z" fill="#D2D2D2" transform="matrix(1 0 0 1.00279 34 62)"/><path d="M212.547 204.088C212.547 204.759 212.003 205.303 211.332 205.303 210.66 205.303 210.116 204.759 210.116 204.088 210.116 203.417 210.66 202.872 211.332 202.872 212.003 202.872 212.547 203.417 212.547 204.088Z" fill="#D2D2D2" transform="matrix(1 0 0 1.00279 34 62)"/><path d="M236.924 183.43C236.924 184.102 236.38 184.646 235.709 184.646 235.037 184.646 234.493 184.102 234.493 183.43 234.493 182.759 235.037 182.215 235.709 182.215 236.38 182.215 236.924 182.759 236.924 183.43Z" fill="#FFC000" transform="matrix(1 0 0 1.00279 34 62)"/></g></svg>