<svg width="360" height="359" xmlns="http://www.w3.org/2000/svg" xmlns:xlink="http://www.w3.org/1999/xlink" overflow="hidden"><defs><clipPath id="clip0"><rect x="887" y="65" width="360" height="359"/></clipPath></defs><g clip-path="url(#clip0)" transform="translate(-887 -65)"><path d="M242.829 164.6C265.825 178.657 280.082 173.565 280.082 173.565 280.082 173.565 278.112 158.555 255.116 144.498 232.12 130.441 207.334 129.096 207.334 129.096 207.334 129.096 219.833 150.543 242.829 164.6Z" fill="#D1D1D1" transform="matrix(1.00279 0 0 1 887 65)"/><path d="M272.999 169.688C272.769 169.534 249.895 154.244 237.29 148.142L237.616 147.469C250.268 153.593 273.185 168.912 273.415 169.066L272.999 169.688Z" fill="#E6E6E6" transform="matrix(1.00279 0 0 1 887 65)"/><path d="M169.825 216.17C182.21 220.527 237.983 214.677 249.692 191.681 250.166 190.751 250.938 190.012 251.904 189.614 257.597 187.266 262.469 182.999 265.607 177.696 265.162 177.445 266.609 178.25 264.609 177.133 262.608 176.02 264.053 176.827 263.605 176.58 260.965 181.642 256.672 185.815 251.536 188.312 250.665 188.735 249.647 188.704 248.783 188.268 225.376 176.455 177.19 205.351 169.825 216.17Z" fill="#D1D1D1" transform="matrix(1.00279 0 0 1 887 65)"/><path d="M250.739 204.91C266.008 182.701 281.102 181.539 281.102 181.539 281.102 181.539 285.422 196.048 270.152 218.258 254.883 240.468 232.798 251.798 232.798 251.798 232.798 251.798 235.469 227.12 250.739 204.91Z" fill="#D1D1D1" transform="matrix(1.00279 0 0 1 887 65)"/><path d="M110.166 231.426C110.166 231.426 107.134 243.816 86.5837 253.438 66.0332 263.061 45.1551 261.867 45.1551 261.867L110.166 231.426Z" fill="#737373" transform="matrix(1.00279 0 0 1 887 65)"/><path d="M95.2311 235.402C120.915 227.231 126.406 213.124 126.406 213.124 126.406 213.124 113.774 204.781 88.0896 212.951 62.4054 221.121 45.1551 238.97 45.1551 238.97 45.1551 238.97 69.5469 243.572 95.2311 235.402Z" fill="#D1D1D1" transform="matrix(1.00279 0 0 1 887 65)"/><path d="M74.7632 136.676C74.7632 136.676 62.3736 133.644 52.7509 113.093 43.1282 92.5427 44.3223 71.6646 44.3223 71.6646L74.7632 136.676Z" fill="#737373" transform="matrix(1.00279 0 0 1 887 65)"/><path d="M129.693 198.384C129.693 202.415 124.413 205.684 117.901 205.684 111.388 205.684 106.109 202.415 106.109 198.384 106.109 194.352 111.388 191.084 117.901 191.084 124.413 191.084 129.693 194.352 129.693 198.384Z" fill="#FFC000" transform="matrix(0.608861 -0.793277 0.795486 0.60717 775.513 236.239)"/><path d="M297.298 224.813C297.298 228.841 292.024 232.106 285.519 232.106 279.013 232.106 273.739 228.841 273.739 224.813 273.739 220.786 279.013 217.521 285.519 217.521 292.024 217.521 297.298 220.786 297.298 224.813Z" fill="#FFC000" transform="matrix(0.141091 -0.989997 0.992754 0.1407 909.827 540.854)"/><path d="M289.615 155.456C289.615 161.971 286.345 167.252 282.312 167.252 278.279 167.252 275.01 161.971 275.01 155.456 275.01 148.941 278.279 143.66 282.312 143.66 286.345 143.66 289.615 148.941 289.615 155.456Z" fill="#FFC000" transform="matrix(0.703179 -0.711012 0.712993 0.701226 860.35 311.94)"/><path d="M209.604 193.06C209.604 197.091 204.325 200.359 197.812 200.359 191.3 200.359 186.02 197.091 186.02 193.06 186.02 189.028 191.3 185.76 197.812 185.76 204.325 185.76 209.604 189.028 209.604 193.06Z" fill="#FFC000" transform="matrix(0.800992 -0.599975 0.601646 0.798767 810.569 222.33)"/><path d="M140.019 165.394C140.019 170.807 137.299 175.195 133.944 175.195 130.588 175.195 127.868 170.807 127.868 165.394 127.868 159.981 130.588 155.593 133.944 155.593 137.299 155.593 140.019 159.981 140.019 165.394Z" fill="#505050" transform="matrix(0.648148 -0.761514 0.763635 0.646348 808.044 225.296)"/><path d="M191.319 152.772C191.319 158.182 188.6 162.568 185.247 162.568 181.893 162.568 179.174 158.182 179.174 152.772 179.174 147.362 181.893 142.976 185.247 142.976 188.6 142.976 191.319 147.362 191.319 152.772Z" fill="#505050" transform="matrix(0.885919 -0.467214 0.468515 0.883458 836.962 169.255)"/><path d="M314.085 175.519C312.306 175.521 310.54 175.254 308.842 174.725 307.344 174.257 305.564 173.673 304.518 173.227 298.231 170.565 292.775 166.105 288.666 160.671 288.242 160.055 287.309 160.749 287.758 161.33 292.526 167.996 299.294 173.411 307.079 176.077 294.909 177.536 282.515 177.982 270.326 176.745 259.917 175.277 241.145 173.204 233.864 172.414 231.336 172.14 228.89 171.328 226.735 169.979 222.64 167.416 219.157 163.827 215.905 160.212 214.62 158.783 214.011 156.888 214.136 154.97 215.822 128.923 176.717 92.7548 163.592 88.4752 163.592 88.4752 166.574 113.118 182.122 135.134 192.832 150.301 203.744 155.723 209.498 157.629 211.758 158.378 213.771 159.726 215.303 161.548 218.594 165.463 222.15 169.309 226.437 172.025 218.435 171.838 210.493 172.54 202.571 173.513 201.064 172.853 199.571 171.983 198.192 171.061 194.348 168.451 190.94 164.947 189.111 160.627 189.105 160.608 188.619 159.43 188.616 159.417 188.484 159.083 187.97 159.29 188.094 159.619 190.053 165.731 194.743 170.594 200.227 173.808 191.462 174.937 182.716 176.319 173.934 177.112 168.11 177.528 162.274 177.81 156.431 177.988 155.195 177.877 153.944 177.673 152.741 177.419 148.202 176.424 143.737 174.436 140.434 171.104 140.422 171.088 139.532 170.176 139.525 170.164 139.279 169.903 138.878 170.287 139.115 170.546 142.161 174.23 146.356 176.707 150.895 178.125 146.41 178.209 141.922 178.238 137.433 178.207 129.515 177.214 119.314 172.718 108.166 166.258 101.545 161.015 96.3777 153.916 93.4514 145.994 95.209 143.796 103.068 132.441 99.7691 108.662 96.065 81.9657 81.3946 61.9425 81.3946 61.9425 81.3946 61.9425 72.7293 85.203 76.4333 111.9 79.8016 136.178 90.8356 144.827 92.8079 146.195 95.0853 152.675 98.823 158.644 103.634 163.559 63.3048 138.9 13.3428 92.2017 13.3428 92.2017 13.3428 92.2017 22.7228 115.184 43.5299 132.315 60.232 146.067 73.0797 146.815 77.4995 146.574 93.5719 160.28 111.92 173.069 132.664 178.155 119.443 177.955 106.226 177.307 93.0741 176.413 89.4706 175.743 78.5937 174.94 63.058 184.759 43.832 196.91 33.5572 215.163 33.5572 215.163 33.5572 215.163 54.4536 213.715 73.6791 201.564 89.8487 191.344 93.46 180.745 94.1997 177.634 107.936 178.645 121.738 179.381 135.542 179.616 132.952 180.658 130.235 182.041 129.916 182.46 127.346 184.121 125.007 186.27 123.302 188.819 123.239 189.067 122.22 190.056 122.654 190.304 123.043 190.636 123.605 189.321 123.802 189.173 127.598 184.042 133.717 180.941 139.873 179.681 139.875 179.679 139.877 179.676 139.879 179.674 142.704 179.7 145.528 179.707 148.352 179.688 144.5 199.303 130.385 217.508 117.872 232.775L64.3306 297.057C64.3306 297.057 87.3653 287.807 104.615 267.098 118.543 250.376 119.291 237.479 119.063 233.132 131.94 217.872 146.503 199.439 150.433 179.664 158.325 179.576 166.21 179.306 174.076 178.797 178.307 178.446 182.529 177.957 186.747 177.424 186.18 180.939 184.975 183.634 182.979 186.741 182.63 187.285 182.037 187.626 181.391 187.65 155.318 188.632 125.055 235.402 123.232 248.806 136.712 246.871 184.124 216.745 183.466 189.92 183.449 189.231 183.658 188.555 184.07 188.002 186.464 184.787 188.15 181.046 189.031 177.132 199.212 175.816 209.377 174.351 219.617 174.071 216.413 179.668 211.186 184.026 205.063 186.141 204.784 186.238 204.626 186.539 204.708 186.826 204.794 187.124 205.106 187.299 205.403 187.21 216.275 183.933 222.14 174.241 222.14 174.241 222.14 174.241 226.578 174.048 228.99 174.18 230.446 174.227 233.348 174.518 233.343 174.581 231.244 191.815 184.971 246.669 175.929 261.75 188.038 258.213 229.548 220.845 225.738 195.097 225.617 194.276 225.796 193.44 226.261 192.753 229.644 187.764 233.421 182.642 234.894 176.803 235.228 175.477 236.477 174.594 237.84 174.708 248.053 175.569 258.23 177.232 268.329 178.87 281.773 180.541 295.352 180.121 308.785 178.533 304.224 183.75 299.123 189.017 294.967 194.763 291.616 198.223 287.356 200.795 282.685 202.071 282.685 202.071 282.184 202.298 282.321 202.784 282.44 203.203 282.967 203.157 282.967 203.157 286.206 202.385 289.291 201.008 292.06 199.154 289.085 204.134 287.013 209.516 286.696 215.549 286.598 216.276 287.74 216.389 287.81 215.679 288.265 211.889 289.291 208.191 290.825 204.729 294.671 196.095 302.454 188.959 309.105 181.904 311.344 179.53 314.46 178.182 317.724 178.185L345.657 178.214 345.657 175.475C345.491 175.488 322.035 175.512 314.085 175.519Z" fill="#737373" transform="matrix(1.00279 0 0 1 887 65)"/><path d="M145.388 227.814 144.902 227.245C155.604 218.106 175.98 195.584 176.184 195.358L176.739 195.859C176.535 196.085 156.126 218.643 145.388 227.814Z" fill="#505050" transform="matrix(1.00279 0 0 1 887 65)"/><path d="M90.8158 136.724C90.7746 136.406 86.6944 104.798 85.4083 92.0031L86.1525 91.9283C87.4374 104.713 91.5162 136.31 91.5573 136.628L90.8158 136.724Z" fill="#505050" transform="matrix(1.00279 0 0 1 887 65)"/><path d="M59.7361 197.319 59.3023 196.71C68.4284 190.207 85.4364 181.296 85.6069 181.207L85.9536 181.87C85.7834 181.959 68.8203 190.847 59.7361 197.319Z" fill="#505050" transform="matrix(1.00279 0 0 1 887 65)"/><path d="M285.245 209.239C285.245 213.27 279.966 216.538 273.454 216.538 266.943 216.538 261.664 213.27 261.664 209.239 261.664 205.208 266.943 201.941 273.454 201.941 279.966 201.941 285.245 205.208 285.245 209.239Z" fill="#505050" transform="matrix(0.832058 -0.556595 0.558145 0.829747 816.667 252.641)"/><path d="M92.7742 89.4314C93.3262 102.549 119.462 152.166 145.162 154.501 146.201 154.596 147.174 155.039 147.902 155.787 152.196 160.203 157.966 163.142 164.056 164.087 164.123 163.581 163.913 165.223 164.207 162.952 164.498 160.68 164.285 162.321 164.348 161.814 158.668 161.241 153.2 158.804 148.975 154.962 148.258 154.31 147.909 153.354 147.993 152.388 150.273 126.27 105.555 92.2536 92.7742 89.4314Z" fill="#D1D1D1" transform="matrix(1.00279 0 0 1 887 65)"/><path d="M172.686 134.264C181.083 159.856 172.852 172.548 172.852 172.548 172.852 172.548 158.697 167.183 150.3 141.591 141.903 115.999 146.29 91.5895 146.29 91.5895 146.29 91.5895 164.29 108.673 172.686 134.264Z" fill="#D1D1D1" transform="matrix(1.00279 0 0 1 887 65)"/><path d="M140.422 146.66C140.256 146.493 123.671 129.732 112.921 115.09L113.524 114.647C124.241 129.244 140.787 145.966 140.953 146.134L140.422 146.66Z" fill="#E6E6E6" transform="matrix(1.00279 0 0 1 887 65)"/><path d="M169.466 162.483C169.375 162.169 160.403 130.876 156.933 118.126L157.655 117.929C161.123 130.675 170.095 161.963 170.185 162.277L169.466 162.483Z" fill="#E6E6E6" transform="matrix(1.00279 0 0 1 887 65)"/></g></svg>